<mxfile host="app.diagrams.net" modified="2023-07-01T12:22:23.043Z" agent="Mozilla/5.0 (Windows NT 10.0; Win64; x64; rv:109.0) Gecko/20100101 Firefox/114.0" etag="c_VVWWrZjLZyDS845yVT" version="21.3.7" type="github">
  <diagram name="Page-1" id="oTC1ZE3Bsds6GOETxTSx">
    <mxGraphModel dx="1100" dy="635" grid="1" gridSize="10" guides="1" tooltips="1" connect="1" arrows="1" fold="1" page="1" pageScale="1" pageWidth="827" pageHeight="1169" math="0" shadow="0">
      <root>
        <mxCell id="0" />
        <mxCell id="1" parent="0" />
        <mxCell id="QK4Vu31ffJdNQrW0z0TG-5" value="&lt;div&gt;Melaporkan Data Barang &lt;br&gt;&lt;/div&gt;&lt;div&gt;Menggunakan Barcode &lt;/div&gt;" style="edgeStyle=orthogonalEdgeStyle;rounded=0;orthogonalLoop=1;jettySize=auto;html=1;entryX=0.5;entryY=1;entryDx=0;entryDy=0;" edge="1" parent="1" source="QK4Vu31ffJdNQrW0z0TG-1" target="QK4Vu31ffJdNQrW0z0TG-2">
          <mxGeometry x="0.4904" relative="1" as="geometry">
            <mxPoint as="offset" />
          </mxGeometry>
        </mxCell>
        <mxCell id="QK4Vu31ffJdNQrW0z0TG-9" value="&lt;div&gt;Menerima Dtaa Barang&lt;/div&gt;&lt;div&gt;Yang dipesan&lt;br&gt;&lt;/div&gt;" style="edgeStyle=orthogonalEdgeStyle;rounded=0;orthogonalLoop=1;jettySize=auto;html=1;exitX=1;exitY=1;exitDx=0;exitDy=0;entryX=0.544;entryY=0.978;entryDx=0;entryDy=0;entryPerimeter=0;" edge="1" parent="1" source="QK4Vu31ffJdNQrW0z0TG-1" target="QK4Vu31ffJdNQrW0z0TG-3">
          <mxGeometry relative="1" as="geometry" />
        </mxCell>
        <mxCell id="QK4Vu31ffJdNQrW0z0TG-10" value="&lt;div&gt;Menerima Data Pesanan&lt;/div&gt;&lt;div&gt;dari Kantor Cabang&lt;br&gt;&lt;/div&gt;" style="edgeStyle=orthogonalEdgeStyle;rounded=0;orthogonalLoop=1;jettySize=auto;html=1;exitX=0;exitY=1;exitDx=0;exitDy=0;" edge="1" parent="1" source="QK4Vu31ffJdNQrW0z0TG-1" target="QK4Vu31ffJdNQrW0z0TG-4">
          <mxGeometry relative="1" as="geometry" />
        </mxCell>
        <mxCell id="QK4Vu31ffJdNQrW0z0TG-1" value="SISTEM PENGELOLAAN BARANG" style="ellipse;whiteSpace=wrap;html=1;aspect=fixed;" vertex="1" parent="1">
          <mxGeometry x="314" y="190" width="200" height="200" as="geometry" />
        </mxCell>
        <mxCell id="QK4Vu31ffJdNQrW0z0TG-2" value="MANAGER GUDANG" style="rounded=0;whiteSpace=wrap;html=1;" vertex="1" parent="1">
          <mxGeometry x="70" y="40" width="180" height="90" as="geometry" />
        </mxCell>
        <mxCell id="QK4Vu31ffJdNQrW0z0TG-8" value="&lt;div&gt;Membuat Data Barang&lt;/div&gt;&lt;div&gt;Ke Kantor Pusat&lt;br&gt;&lt;/div&gt;" style="edgeStyle=orthogonalEdgeStyle;rounded=0;orthogonalLoop=1;jettySize=auto;html=1;entryX=1;entryY=0.5;entryDx=0;entryDy=0;" edge="1" parent="1" source="QK4Vu31ffJdNQrW0z0TG-3" target="QK4Vu31ffJdNQrW0z0TG-1">
          <mxGeometry relative="1" as="geometry" />
        </mxCell>
        <mxCell id="QK4Vu31ffJdNQrW0z0TG-3" value="KANTOR CABANG" style="rounded=0;whiteSpace=wrap;html=1;" vertex="1" parent="1">
          <mxGeometry x="570" y="40" width="180" height="90" as="geometry" />
        </mxCell>
        <mxCell id="QK4Vu31ffJdNQrW0z0TG-11" value="&lt;div&gt;Menerbitkan&lt;/div&gt;&lt;div&gt;Data Barang yang dipesan&lt;br&gt;&lt;/div&gt;" style="edgeStyle=orthogonalEdgeStyle;rounded=0;orthogonalLoop=1;jettySize=auto;html=1;exitX=1;exitY=0.75;exitDx=0;exitDy=0;entryX=0.5;entryY=1;entryDx=0;entryDy=0;" edge="1" parent="1" source="QK4Vu31ffJdNQrW0z0TG-4" target="QK4Vu31ffJdNQrW0z0TG-1">
          <mxGeometry relative="1" as="geometry">
            <mxPoint x="470" y="460" as="targetPoint" />
          </mxGeometry>
        </mxCell>
        <mxCell id="QK4Vu31ffJdNQrW0z0TG-4" value="KANTOR PUSAT" style="rounded=0;whiteSpace=wrap;html=1;" vertex="1" parent="1">
          <mxGeometry x="70" y="440" width="180" height="90" as="geometry" />
        </mxCell>
      </root>
    </mxGraphModel>
  </diagram>
</mxfile>
